#!OML:ASF F:\twosubjects\two\wednesday\Session 1\rory1.ASF
:FULLY-SPECIFIED
:DEGREES
17
root 17.0869 18.8755 16.5292 -175.701 -1.95892 -180.74
lowerback -2.92848 0.270687 -5.84577
upperback -1.20827 0.38391 -2.26769
thorax 0.369239 0.138499 0.955328
lowerneck -15.0964 -2.02428 -2.19802
upperneck 16.0153 -2.05469 -2.18659
head 7.41368 -1.40337 -0.586111
rclavicle -1.92573e-015 4.85035e-014
rhumerus 38.6112 -11.813 -50.5326
rradius 28.3881
rwrist 11.6109
rhand 1.74348 35.3303
rfingers 7.12502
rthumb 27.2592 7.28038
lclavicle -1.92573e-015 4.85035e-014
lhumerus 37.3303 -26.7673 52.7191
lradius 27.9186
lwrist -2.93296
lhand -7.53295 13.6193
lfingers 7.12502
lthumb 18.3582 42.773
rfemur -30.0367 11.5778 4.52045
rtibia 15.6414
rfoot -7.5493 -20.9588
rtoes 1.5585
lfemur 10.5379 -7.09603 -22.4695
ltibia 8.75959
lfoot -12.2015 2.30425
ltoes -22.0982
18
root 17.1249 18.8659 16.4007 -175.557 -2.56885 -180.85
lowerback -2.94974 0.280328 -5.88112
upperback -1.21846 0.399466 -2.25909
thorax 0.369342 0.1468 0.984387
lowerneck -15.2853 -2.04842 -2.12927
upperneck 16.2126 -2.09053 -2.21626
head 7.51018 -1.42285 -0.61567
rclavicle 2.04997e-015 -6.36111e-015
rhumerus 39.1583 -12.7206 -51.7181
rradius 27.8982
rwrist 13.1574
rhand 1.9465 35.6589
rfingers 7.12502
rthumb 27.4534 7.6396
lclavicle 2.04997e-015 -6.36111e-015
lhumerus 37.3971 -26.7249 52.9033
lradius 28.0551
lwrist -2.93342
lhand -6.19336 15.2443
lfingers 7.12502
lthumb 19.6465 44.2716
rfemur -30.1112 11.9081 4.37974
rtibia 15.2934
rfoot -8.93772 -21.8213
rtoes 3.08723
lfemur 11.1182 -7.07955 -22.3142
ltibia 8.11236
lfoot -12.0164 1.83758
ltoes -20.8487
19
root 17.1629 18.8497 16.2702 -175.455 -3.37328 -181.141
lowerback -2.94733 0.217518 -6.01572
upperback -1.2743 0.309463 -2.32202
thorax 0.314746 0.101305 0.991603
lowerneck -15.3301 -2.05804 -2.14727
upperneck 16.59 -2.11252 -2.19285
head 7.64282 -1.4432 -0.613108
rclavicle -7.29291e-015 -2.46493e-014
rhumerus 38.7569 -12.2087 -51.1987
rradius 28.1419
rwrist 12.2915
rhand 2.13226 35.4143
rfingers 7.12502
rthumb 27.6311 7.42327
lclavicle -7.29291e-015 -2.46493e-014
lhumerus 37.331 -26.7308 53.0134
lradius 28.1325
lwrist -3.08084
lhand -8.73474 14.6075
lfingers 7.12502
lthumb 17.2018 43.8661
rfemur -30.0975 11.6518 4.27751
rtibia 15.1648
rfoot -10.4301 -22.3171
rtoes 4.85775
lfemur 11.9678 -7.27594 -22.3012
ltibia 7.19527
lfoot -11.6376 1.16886
ltoes -17.4759
20
root 17.2005 18.828 16.139 -175.363 -4.05597 -181.717
lowerback -2.81243 0.184705 -6.42724
upperback -1.2791 0.254272 -2.41612
thorax 0.234361 0.0723396 1.12142
lowerneck -15.7235 -1.96922 -2.51099
upperneck 17.0938 -1.94277 -1.94375
head 7.88637 -1.37385 -0.46382
rclavicle 6.8208e-015 -4.05521e-014
rhumerus 37.4867 -9.76215 -48.0755
rradius 29.2288
rwrist 8.35719
rhand 1.905 34.7304
rfingers 7.12502
rthumb 27.4137 6.70478
lclavicle 6.8208e-015 -4.05521e-014
lhumerus 37.493 -26.6645 52.9806
lradius 28.063
lwrist -3.42995
lhand -12.6254 16.1996
lfingers 7.12502
lthumb 13.4543 45.745
rfemur -30.0753 11.295 3.94318
rtibia 15.1378
rfoot -10.1008 -22.8077
rtoes 3.37143
lfemur 12.7979 -7.36238 -22.6497
ltibia 6.30892
lfoot -11.0283 0.763064
ltoes -16.5725
21
root 17.2361 18.8078 16.0006 -175.272 -4.54697 -182.165
lowerback -2.73019 0.25859 -6.72197
upperback -1.24453 0.348993 -2.47823
thorax 0.21496 0.117786 1.22357
lowerneck -15.9358 -1.86892 -2.73438
upperneck 17.2249 -1.77769 -1.74168
head 7.97158 -1.29145 -0.345222
rclavicle -8.69683e-016 -1.59028e-014
rhumerus 36.6992 -8.4072 -46.1976
rradius 30.0148
rwrist 6.33439
rhand 2.03197 34.2808
rfingers 7.12502
rthumb 27.5352 6.27447
lclavicle -8.69683e-016 -1.59028e-014
lhumerus 37.8267 -26.768 52.8833
lradius 28.0485
lwrist -3.67658
lhand -15.2449 17.3966
lfingers 7.12502
lthumb 10.9285 47.0922
rfemur -30.0393 10.8437 3.8403
rtibia 15.1025
rfoot -5.65221 -23.002
rtoes -7.57976
lfemur 13.4179 -7.25018 -22.877
ltibia 5.79245
lfoot -10.6173 0.328347
ltoes -16.892
22
root 17.2725 18.7916 15.8567 -175.072 -5.08155 -182.417
lowerback -3.06748 0.298562 -6.79171
upperback -1.17526 0.437718 -2.50808
thorax 0.468784 0.153 1.23584
lowerneck -16.2124 -1.94405 -2.58621
upperneck 17.5912 -1.85163 -2.05731
head 8.13897 -1.35946 -0.490737
rclavicle -1.30452e-015 3.65764e-014
rhumerus 37.728 -10.4526 -48.8145
rradius 29.0456
rwrist 9.65142
rhand 2.67138 34.8937
rfingers 7.12502
rthumb 28.1465 6.98638
lclavicle -1.30452e-015 3.65764e-014
lhumerus 38.263 -26.9023 52.726
lradius 28.0321
lwrist -3.58669
lhand -13.3619 15.724
lfingers 7.12502
lthumb 12.7444 45.315
rfemur -30.0894 10.2688 4.01168
rtibia 15.1762
rfoot -4.74921 -22.9444
rtoes -8.68927
lfemur 13.9302 -7.18594 -22.8226
ltibia 5.27088
lfoot -10.3138 -0.0821801
ltoes -17.6817
